<?xml version="1.0" encoding="utf-8"?>
<!-- Generator: Adobe Illustrator 23.0.1, SVG Export Plug-In . SVG Version: 6.00 Build 0)  -->
<svg version="1.1" id="Layer_1" xmlns="http://www.w3.org/2000/svg" xmlns:xlink="http://www.w3.org/1999/xlink" x="0px" y="0px"
	 viewBox="0 0 100 100" style="enable-background:new 0 0 100 100;" xml:space="preserve">
<style type="text/css">
	.st0{fill:#DCA0C9;}
	.st1{fill:#5AE3B1;}
	.st2{fill:#E0E0E0;}
</style>
<g>
	<g id="XMLID_1_">
		<g>
			<path class="st0" d="M45.9,30l-0.4,0.1c-0.2,0-0.4,0.1-0.8,0.2h-0.1L34.9,8.4c0.9-0.5,1.6-0.8,2.3-1.1c0.7-0.2,1.4-0.4,2.4-0.5
				h0.1l7,23.2c-0.1,0-0.2,0-0.2,0C46.2,30,46.1,30,45.9,30z"/>
			<path d="M34.1,50c0,8.8,7.2,15.9,15.9,15.9S65.9,58.7,65.9,50S58.7,34.1,50,34.1S34.1,41.2,34.1,50z M45.5,30.1l0.4-0.1
				c0.2,0,0.3,0,0.6,0c0,0,0.1,0,0.2,0l-7-23.2h-0.1c-1,0.1-1.8,0.3-2.4,0.5c-0.7,0.2-1.3,0.6-2.3,1.1l9.7,21.9h0.1
				C45.1,30.2,45.3,30.1,45.5,30.1z M14.9,22.5l18.8,15.1l0,0c1.7-2.2,3.7-4.1,6.1-5.4c0.3-0.2,0.7-0.3,1-0.5L27.9,11.4
				c-1.9,1-3.7,2.2-5.4,3.4c-2.9,2.1-5.4,4.6-7.7,7.5l0.2,0.1C15,22.4,14.9,22.5,14.9,22.5z M50,0c27.5,0,50,22.4,50,50
				s-22.5,50-50,50S0,77.5,0,50S22.5,0,50,0z"/>
			<path class="st1" d="M33.7,37.6L15,22.4l0,0c2.2-2.9,4.7-5.4,7.5-7.6c1.7-1.2,3.5-2.4,5.4-3.4l12.9,20.3c-0.3,0.2-0.7,0.3-1,0.5
				c-0.3,0.2-0.6,0.3-0.9,0.5c-0.3,0.2-0.6,0.4-0.8,0.5c-0.5,0.4-1.1,0.8-1.6,1.2c0,0,0,0,0,0c0,0-0.1,0.1-0.1,0.1
				C35.4,35.5,34.5,36.5,33.7,37.6L33.7,37.6z"/>
			<path d="M22.5,14.8c-2.9,2.2-5.3,4.6-7.5,7.6l-0.2-0.1C17.1,19.4,19.6,16.9,22.5,14.8z"/>
			<path class="st2" d="M50,34.1c8.7,0,15.9,7.2,15.9,15.9S58.7,65.9,50,65.9S34.1,58.8,34.1,50S41.3,34.1,50,34.1z M53.3,50
				c0-4.4-6.8-4.4-6.8,0S53.3,54.4,53.3,50z"/>
			<path d="M46.5,50c0-4.4,6.8-4.4,6.8,0S46.5,54.4,46.5,50z"/>
			<path d="M38.9,32.7c-0.3,0.2-0.6,0.4-0.8,0.5C38.3,33.1,38.6,32.9,38.9,32.7z"/>
			<path d="M33.7,37.6c0.8-1.1,1.7-2.1,2.6-2.9C35.3,35.5,34.5,36.5,33.7,37.6z"/>
			<path class="st1" d="M33.7,37.6L14.9,22.5c0,0,0.1-0.1,0.1-0.1l0,0L33.7,37.6z"/>
		</g>
		<g>
		</g>
	</g>
</g>
</svg>
